<?xml version="1.0" encoding="utf-8"?>
<svg id="Layer_1" viewBox="116 90 320 340" xmlns="http://www.w3.org/2000/svg">
  <path fill="#000000" d="M 435.2 337.5 C 433.4 323.3 421.4 313.5 406 313.7 C 383 314 363.7 325.9 350.9 333.8 C 345.9 336.9 341.6 339.2 337.9 340.9 C 338.7 329.3 338 314.1 332 297.4 C 324.7 277.4 314.9 265.1 307.9 258 C 316 246.2 327.1 229 332.3 202.4 C 336.8 179.7 335.4 144.4 325.1 124.6 C 323 120.6 319.5 117.7 315.1 116.5 C 313.3 116 309.9 115 303.2 116.9 C 293.1 96 289.6 93.8 286.9 92 C 281.3 88.4 274.7 87.6 268.5 89.9 C 260.2 92.9 253.1 100.9 246.4 115.1 C 245.4 117.2 244.5 119.2 243.7 121.2 C 231 122.1 211 126.7 194.1 145 C 192 147.3 187.9 149 183.6 150.6 L 183.7 150.6 C 174.9 153.7 170.9 160.9 166 173.9 C 159.2 192.1 166.2 210 173.1 221.6 C 163.7 230 151.2 243.4 144.6 259.1 C 136.4 278.5 135.5 297.5 135.8 307.8 C 128.8 315.2 118 329.1 116.8 344.7 C 115.2 366.5 123.1 381.3 126.6 386.7 C 127.6 388.3 128.7 389.6 129.9 390.9 C 129.5 393.6 129.4 396.5 130 399.5 C 131.3 406.5 135.7 412.2 142.4 415.8 C 155.6 422.8 174 425.8 188.2 418.7 C 193.3 424.1 202.6 429.3 219.5 429.3 L 220.5 429.3 C 224.8 429.3 279.4 426.4 295.3 422.5 C 302.4 420.8 307.3 417.8 310.5 415.1 C 320.7 411.9 348.9 402.3 375.5 385.1 C 394.3 372.9 400.8 370.3 414.8 366.9 C 428.4 363.6 436.9 351.2 435.2 337.5 Z M 411.4 352.2 C 395.4 356 387.3 359.5 367.5 372.4 C 336.6 392.4 302.8 401.7 302.8 401.7 C 302.8 401.7 300 405.9 291.9 407.8 C 277.9 411.2 225.2 414.1 220.4 414.2 C 207.5 414.3 199.6 410.9 197.4 405.6 C 190.7 389.6 207 382.6 207 382.6 C 207 382.6 203.4 380.4 201.3 378.4 C 199.4 376.5 197.4 372.7 196.8 374.1 C 194.3 380.2 193 395.1 186.3 401.8 C 177.1 411.1 159.7 408 149.4 402.6 C 138.1 396.6 150.2 382.5 150.2 382.5 C 150.2 382.5 144.1 386.1 139.2 378.7 C 134.8 371.9 130.7 360.3 131.8 346 C 133 329.7 151.2 313.9 151.2 313.9 C 151.2 313.9 148 289.8 158.5 265.1 C 168 242.6 193.6 224.5 193.6 224.5 C 193.6 224.5 172.1 200.7 180.1 179.3 C 185.3 165.3 187.4 165.4 189.1 164.8 C 195.1 162.5 200.9 160 205.2 155.3 C 226.7 132.1 254.1 136.5 254.1 136.5 C 254.1 136.5 267.1 97 279.1 104.7 C 282.8 107.1 296.1 136.7 296.1 136.7 C 296.1 136.7 310.3 128.4 311.9 131.5 C 320.5 148.2 321.5 180.1 317.7 199.5 C 311.3 231.5 295.3 248.7 288.9 259.5 C 287.4 262 306.1 269.9 317.9 302.6 C 328.8 332.5 319.1 357.6 320.8 360.4 C 321.1 360.9 321.2 361.1 321.2 361.1 C 321.2 361.1 333.7 362.1 358.8 346.6 C 372.2 338.3 388.1 329 406.2 328.8 C 423.7 328.5 424.6 349 411.4 352.2 Z"/>
</svg>